<svg width="64" height="64" viewBox="0 0 64 64" fill="none" xmlns="http://www.w3.org/2000/svg">
<g id="Icon">
<path id="Vector" d="M49 33.9707L28.4853 54.4853C26.2349 56.7358 23.1826 58.0001 20 58.0001C16.8174 58.0001 13.7651 56.7358 11.5147 54.4853C9.26421 52.2349 7.99992 49.1826 7.99992 46C7.99992 42.8174 9.26421 39.7651 11.5147 37.5147L40.688 8.34134C41.4311 7.59858 42.3132 7.00947 43.284 6.60762C44.2548 6.20578 45.2952 5.99908 46.3459 5.99933C47.3965 5.99958 48.4369 6.20677 49.4075 6.60907C50.3781 7.01137 51.2599 7.6009 52.0027 8.34401C52.7454 9.08711 53.3345 9.96924 53.7364 10.94C54.1382 11.9108 54.3449 12.9512 54.3447 14.0019C54.3444 15.0526 54.1372 16.0929 53.7349 17.0635C53.3326 18.0341 52.7431 18.9159 52 19.6587L22.8053 48.8533C22.048 49.5794 21.0356 49.9762 19.9865 49.9629C18.9374 49.9496 17.9355 49.5246 17.1968 48.7796C16.4581 48.0346 16.0416 47.0291 16.0372 45.9799C16.0328 44.9308 16.4409 43.9219 17.1733 43.1707L38 22.344M22.8293 48.8267L22.8027 48.8533" stroke="#34D399" stroke-width="1.5" stroke-linecap="round" stroke-linejoin="round"/>
</g>
</svg>
