<svg width="64" height="64" viewBox="0 0 64 64" fill="none" xmlns="http://www.w3.org/2000/svg">
<g id="Icon">
<path id="Vector" d="M32 44V26M32 26L40 34M32 26L24 34M18 52C15.1451 52.0031 12.3827 50.9883 10.2088 49.1378C8.03485 47.2873 6.59186 44.7225 6.13894 41.9038C5.68603 39.0851 6.25286 36.1972 7.73764 33.7589C9.22242 31.3205 11.5279 29.4914 14.24 28.6C13.5432 25.0298 14.2633 21.3285 16.2479 18.28C18.2325 15.2315 21.3258 13.0752 24.8726 12.2676C28.4194 11.46 32.1412 12.0646 35.25 13.9533C38.3588 15.8421 40.6104 18.8667 41.528 22.3866C42.9467 21.9252 44.4661 21.8697 45.9147 22.2264C47.3633 22.583 48.6833 23.3376 49.7256 24.4049C50.768 25.4722 51.4911 26.8097 51.8133 28.2663C52.1356 29.7229 52.0442 31.2406 51.5493 32.648C53.7324 33.4818 55.5547 35.0536 56.7002 37.0905C57.8456 39.1274 58.2419 41.5011 57.8203 43.7996C57.3988 46.0982 56.1859 48.1767 54.3921 49.6745C52.5984 51.1724 50.3369 51.9951 48 52H18Z" stroke="#34D399" stroke-width="1.5" stroke-linecap="round" stroke-linejoin="round"/>
</g>
</svg>
