<svg width="64" height="64" viewBox="0 0 64 64" fill="none" xmlns="http://www.w3.org/2000/svg">
<g id="Icon">
<path id="Vector" d="M32 56C37.32 55.9997 42.4892 54.2325 46.6961 50.9761C50.9029 47.7196 53.9091 43.1581 55.2427 38.008M32 56C26.68 55.9997 21.5108 54.2325 17.3039 50.9761C13.0971 47.7196 10.0909 43.1581 8.75734 38.008M32 56C38.6267 56 44 45.2533 44 32C44 18.7467 38.6267 8 32 8M32 56C25.3733 56 20 45.2533 20 32C20 18.7467 25.3733 8 32 8M55.2427 38.008C55.736 36.088 56 34.0747 56 32C56.0066 27.8723 54.9436 23.8133 52.9147 20.2187M55.2427 38.008C48.1311 41.9504 40.1312 44.0128 32 44C23.568 44 15.6453 41.8267 8.75734 38.008M8.75734 38.008C8.25267 36.0453 7.99821 34.0266 8.00001 32C8.00001 27.72 9.12001 23.6987 11.0853 20.2187M32 8C36.2567 7.99823 40.4371 9.12896 44.1125 11.2762C47.7879 13.4234 50.8259 16.5098 52.9147 20.2187M32 8C27.7434 7.99823 23.5629 9.12896 19.8875 11.2762C16.2121 13.4234 13.1742 16.5098 11.0853 20.2187M52.9147 20.2187C47.1085 25.2478 39.6814 28.0111 32 28C24.0053 28 16.6933 25.0667 11.0853 20.2187" stroke="#34D399" stroke-width="1.5" stroke-linecap="round" stroke-linejoin="round"/>
</g>
</svg>
