<svg width="64" height="64" viewBox="0 0 64 64" fill="none" xmlns="http://www.w3.org/2000/svg">
<g id="Icon">
<path id="Vector" d="M20 22H44M20 30H32M6 34.0267C6 38.2933 8.99467 42.0107 13.2187 42.632C16.2293 43.0747 19.272 43.4133 22.3467 43.6427C23.28 43.712 24.1333 44.2027 24.6533 44.9787L32 56L39.3467 44.9787C39.6044 44.5954 39.9461 44.2759 40.3458 44.0444C40.7454 43.8129 41.1926 43.6755 41.6533 43.6427C44.7071 43.4147 47.7517 43.0776 50.7813 42.632C55.0053 42.0107 58 38.296 58 34.024V17.976C58 13.704 55.0053 9.98934 50.7813 9.36801C44.5626 8.45524 38.2854 7.99803 32 8.00001C25.6213 8.00001 19.3493 8.46667 13.2187 9.36801C8.99467 9.98934 6 13.7067 6 17.976V34.024V34.0267Z" stroke="#34D399" stroke-width="1.5" stroke-linecap="round" stroke-linejoin="round"/>
</g>
</svg>
