<svg width="64" height="64" viewBox="0 0 64 64" fill="none" xmlns="http://www.w3.org/2000/svg">
<g id="Icon">
<path id="Vector" d="M30.6133 9.33065C30.7261 9.05553 30.9182 8.82018 31.1651 8.65454C31.412 8.4889 31.7026 8.40045 32 8.40045C32.2973 8.40045 32.5879 8.4889 32.8349 8.65454C33.0818 8.82018 33.2739 9.05553 33.3867 9.33065L39.0533 22.96C39.1594 23.215 39.3338 23.4358 39.5572 23.5982C39.7807 23.7605 40.0447 23.858 40.32 23.88L55.0347 25.0587C56.3653 25.1653 56.904 26.8267 55.8907 27.6933L44.68 37.2987C44.4705 37.4778 44.3145 37.7112 44.2288 37.9732C44.1432 38.2352 44.1314 38.5157 44.1947 38.784L47.6213 53.144C47.6902 53.4321 47.6721 53.7341 47.5694 54.012C47.4668 54.2898 47.284 54.531 47.0443 54.7051C46.8047 54.8791 46.5188 54.9783 46.2228 54.9899C45.9268 55.0016 45.634 54.9253 45.3813 54.7707L32.7813 47.0773C32.5459 46.9339 32.2756 46.858 32 46.858C31.7243 46.858 31.454 46.9339 31.2187 47.0773L18.6187 54.7733C18.366 54.928 18.0732 55.0043 17.7772 54.9926C17.4812 54.9809 17.1953 54.8818 16.9556 54.7077C16.7159 54.5337 16.5332 54.2925 16.4305 54.0146C16.3278 53.7368 16.3098 53.4348 16.3787 53.1466L19.8053 38.784C19.8689 38.5157 19.8572 38.2351 19.7716 37.9731C19.6859 37.711 19.5297 37.4776 19.32 37.2987L8.10932 27.6933C7.88482 27.5003 7.72241 27.2452 7.64252 26.9601C7.56262 26.675 7.56881 26.3726 7.66029 26.091C7.75178 25.8095 7.92449 25.5612 8.15669 25.3775C8.3889 25.1938 8.67023 25.0829 8.96532 25.0587L23.68 23.88C23.9553 23.858 24.2192 23.7605 24.4427 23.5982C24.6662 23.4358 24.8406 23.215 24.9467 22.96L30.6133 9.33065Z" stroke="#34D399" stroke-width="1.5" stroke-linecap="round" stroke-linejoin="round"/>
</g>
</svg>
