<svg width="64" height="64" viewBox="0 0 64 64" fill="none" xmlns="http://www.w3.org/2000/svg">
<g id="Icon">
<path id="Vector" d="M28 16C24.0444 16 20.1776 17.173 16.8886 19.3706C13.5996 21.5682 11.0362 24.6918 9.52241 28.3463C8.00866 32.0009 7.61259 36.0222 8.3843 39.9018C9.156 43.7814 11.0608 47.3451 13.8579 50.1421C16.6549 52.9392 20.2186 54.844 24.0982 55.6157C27.9778 56.3874 31.9991 55.9913 35.6537 54.4776C39.3082 52.9638 42.4318 50.4004 44.6294 47.1114C46.827 43.8224 48 39.9556 48 36H28V16Z" stroke="#34D399" stroke-width="1.5" stroke-linecap="round" stroke-linejoin="round"/>
<path id="Vector_2" d="M36 28H56C56 22.6957 53.8929 17.6086 50.1421 13.8579C46.3914 10.1071 41.3043 8 36 8V28Z" stroke="#34D399" stroke-width="1.5" stroke-linecap="round" stroke-linejoin="round"/>
</g>
</svg>
