<svg width="64" height="64" viewBox="0 0 64 64" fill="none" xmlns="http://www.w3.org/2000/svg">
<g id="Icon">
<path id="Vector" d="M18.2053 16.4667C17.7253 17.2264 17.0849 17.872 16.3289 18.358C15.5729 18.844 14.7198 19.1587 13.8293 19.28C12.816 19.424 11.8107 19.5787 10.8053 19.7467C7.99733 20.2133 6 22.6853 6 25.5307V48C6 49.5913 6.63214 51.1174 7.75736 52.2426C8.88258 53.3679 10.4087 54 12 54H52C53.5913 54 55.1174 53.3679 56.2426 52.2426C57.3679 51.1174 58 49.5913 58 48V25.5307C58 22.6853 56 20.2133 53.1947 19.7467C52.1886 19.579 51.1805 19.4235 50.1707 19.28C49.2807 19.1583 48.4281 18.8434 47.6726 18.3574C46.9171 17.8714 46.2771 17.2261 45.7973 16.4667L43.6053 12.9573C43.113 12.1576 42.4353 11.4882 41.6294 11.006C40.8236 10.5237 39.9135 10.2426 38.976 10.1867C34.3287 9.93705 29.6713 9.93705 25.024 10.1867C24.0865 10.2426 23.1764 10.5237 22.3706 11.006C21.5647 11.4882 20.887 12.1576 20.3947 12.9573L18.2053 16.4667Z" stroke="#34D399" stroke-width="1.5" stroke-linecap="round" stroke-linejoin="round"/>
<path id="Vector_2" d="M44 34C44 37.1826 42.7357 40.2348 40.4853 42.4853C38.2348 44.7357 35.1826 46 32 46C28.8174 46 25.7652 44.7357 23.5147 42.4853C21.2643 40.2348 20 37.1826 20 34C20 30.8174 21.2643 27.7652 23.5147 25.5147C25.7652 23.2643 28.8174 22 32 22C35.1826 22 38.2348 23.2643 40.4853 25.5147C42.7357 27.7652 44 30.8174 44 34ZM50 28H50.0213V28.0213H50V28Z" stroke="#34D399" stroke-width="1.5" stroke-linecap="round" stroke-linejoin="round"/>
</g>
</svg>
